<svg height="384pt" viewBox="0 0 384 384.0134" width="384pt" xmlns="http://www.w3.org/2000/svg"><g fill="#cce4ff"><path d="m344.40625 103.878906c16.082031 27.757813 23.679688 58.160156 23.601562 88.078125l-8-.078125h-120c0-8.160156-2.082031-16.402344-6.402343-24-4.398438-7.601562-10.476563-13.523437-17.597657-17.601562l60-103.921875 2.71875-7.679688c26.480469 14.960938 49.441407 36.960938 65.679688 65.203125zm0 0"/><path d="m360.007812 191.878906 8 .078125c-.082031 60.71875-31.601562 119.839844-88 152.320313-.082031 0-.082031.078125-.160156.078125l-3.839844-6.957031-60-103.921876c15.441407-8.878906 24-24.960937 24-41.597656zm0 0"/><path d="m278.726562 38.675781-2.71875 7.679688-60 103.921875c-14.402343-8.238282-32.640624-8.800782-48 0l-60-103.921875-3.839843-6.957031c55.917969-32.242188 122.160156-30.320313 174.558593-.722657zm0 0"/></g><path d="m286.589844 24.75c-57.636719-32.570312-128.757813-32.976562-186.65625-1.328125l-5.78125 3.28125c-58.03125 34.308594-94.058594 97.359375-94.1445315 165.054687-.0898437 33.65625 8.8242185 66.902344 25.7343755 96.105469 15.144531 26.300781 35.671874 48.054688 61.03125 64.6875 32.050781 20.933594 68.539062 31.460938 105.113281 31.460938 31.617187 0 63.289062-7.863281 92.191406-23.679688l5.863281-3.335937c57.992188-34.3125 93.976563-97.335938 94.066406-165.023438.085938-33.640625-8.824218-66.871094-25.738281-96.070312-17.085937-29.714844-41.871093-54.320313-71.679687-71.152344zm-28.886719 21.304688-48.617187 84.207031c-11.167969-3.054688-22.984376-3.054688-34.160157 0l-48.597656-84.167969c41.605469-18.695312 89.695313-18.71875 131.375-.039062zm-33.695313 145.824218c0 11.605469-5.976562 21.972656-15.953124 27.71875-9.886719 5.671875-22.191407 5.664063-32.085938 0-4.882812-2.800781-8.824219-6.746094-11.648438-11.625-2.863281-5.03125-4.3125-10.445312-4.3125-16.09375 0-11.609375 5.976563-21.976562 15.953126-27.722656 4.941406-2.832031 10.496093-4.246094 16.046874-4.246094 5.542969 0 11.09375 1.414063 16.039063 4.246094 4.886719 2.808594 8.832031 6.753906 11.648437 11.632812 2.855469 5.023438 4.3125 10.441407 4.3125 16.089844zm-125.417968-129.832031 48.601562 84.175781c-8.273437 8.132813-14.183594 18.398438-17.105468 29.65625h-97.175782c4.632813-45.554687 28.625-87.175781 65.679688-113.832031zm-45.132813 209.816406c-11.394531-19.683593-18.34375-41.53125-20.585937-63.984375h97.214844c1.433593 5.542969 3.585937 10.933594 6.472656 16.015625 2.921875 5.046875 6.519531 9.621094 10.625 13.65625l-48.519532 84.039063c-18.449218-13.273438-33.753906-29.839844-45.207031-49.726563zm72.824219 65.894531 48.644531-84.265624c5.585938 1.527343 11.320313 2.335937 17.074219 2.335937 5.75 0 11.496094-.808594 17.078125-2.335937l48.609375 84.191406c-42.03125 19.019531-89.671875 18.929687-131.40625.074218zm159.148438-16.046874-48.597657-84.175782c8.269531-8.144531 14.183594-18.410156 17.09375-29.65625h97.175781c-4.636718 45.542969-28.628906 87.175782-65.671874 113.832032zm-31.503907-145.832032c-1.429687-5.546875-3.582031-10.9375-6.46875-16.007812-2.921875-5.050782-6.515625-9.625-10.625-13.664063l48.597657-84.175781c18.328124 13.183594 33.769531 30.132812 45.128906 49.863281 11.402344 19.679688 18.34375 41.542969 20.585937 63.984375zm0 0" fill="#007aff"/></svg>